<svg width="56" height="32" viewBox="0 0 56 32" fill="none" xmlns="http://www.w3.org/2000/svg">
<g clip-path="url(#clip0_41_81)">
<rect width="56" height="32" rx="16" fill="#7C6BA7"/>
<path d="M24 22L28 18.95L32 22L30.5 17.05L34.5 14.2H29.6L28 9L26.4 14.2H21.5L25.5 17.05L24 22ZM28 26C26.6167 26 25.3167 25.7375 24.1 25.2125C22.8833 24.6875 21.825 23.975 20.925 23.075C20.025 22.175 19.3125 21.1167 18.7875 19.9C18.2625 18.6833 18 17.3833 18 16C18 14.6167 18.2625 13.3167 18.7875 12.1C19.3125 10.8833 20.025 9.825 20.925 8.925C21.825 8.025 22.8833 7.3125 24.1 6.7875C25.3167 6.2625 26.6167 6 28 6C29.3833 6 30.6833 6.2625 31.9 6.7875C33.1167 7.3125 34.175 8.025 35.075 8.925C35.975 9.825 36.6875 10.8833 37.2125 12.1C37.7375 13.3167 38 14.6167 38 16C38 17.3833 37.7375 18.6833 37.2125 19.9C36.6875 21.1167 35.975 22.175 35.075 23.075C34.175 23.975 33.1167 24.6875 31.9 25.2125C30.6833 25.7375 29.3833 26 28 26ZM28 24C30.2333 24 32.125 23.225 33.675 21.675C35.225 20.125 36 18.2333 36 16C36 13.7667 35.225 11.875 33.675 10.325C32.125 8.775 30.2333 8 28 8C25.7667 8 23.875 8.775 22.325 10.325C20.775 11.875 20 13.7667 20 16C20 18.2333 20.775 20.125 22.325 21.675C23.875 23.225 25.7667 24 28 24Z" fill="white"/>
</g>
<defs>
<clipPath id="clip0_41_81">
<rect width="56" height="32" rx="16" fill="white"/>
</clipPath>
</defs>
</svg>
